<svg xmlns="http://www.w3.org/2000/svg" xmlns:xlink="http://www.w3.org/1999/xlink" viewBox="0 0 83.88 129.33"><defs><style>.cls-1{opacity:0.5;}.cls-2{fill:url(#linear-gradient);}.cls-3{fill:url(#linear-gradient-2);}</style><linearGradient id="linear-gradient" x1="-14.38" y1="92.44" x2="91.29" y2="31.43" gradientUnits="userSpaceOnUse"><stop offset="0" stop-color="#3b8bff" stop-opacity="0.2"/><stop offset="1" stop-color="#28e58f"/></linearGradient><linearGradient id="linear-gradient-2" x1="-4.24" y1="96.85" x2="95.74" y2="39.13" gradientUnits="userSpaceOnUse"><stop offset="0" stop-color="#3b8bff"/><stop offset="1" stop-color="#28e58f"/></linearGradient></defs><g id="Layer_2" data-name="Layer 2"><g id="Layer_1-2" data-name="Layer 1"><g class="cls-1"><path class="cls-2" d="M4,104.22A55.49,55.49,0,0,0,32,112.14c16,0,25.38-8.46,25.38-20.7,0-11.34-6.48-17.82-22.86-24.12-19.8-7-32-17.28-32-34.38C2.52,14,18.18,0,41.76,0,54.18,0,73.62,7.11,79,10.17L64.26,18.72a48.32,48.32,0,0,0-23-5.76c-16.56,0-22.86,9.9-22.86,18.18,0,11.34,7.38,16.92,24.12,23.4,20.52,7.92,31,17.82,31,35.64,0,18.72-13.86,34.91-42.48,34.91-11.7,0-24.48-3.42-31-7.74Z"/></g><path class="cls-3" d="M14.49,109.11c7,4.32,17.19,7.26,28,7.26,16,0,25.38-8.46,25.38-20.7,0-11.34-6.48-17.82-22.86-24.12-19.8-7-32-17.28-32-34.38C13,18.27,28.62,4.23,52.2,4.23c12.42,0,21.42,2.88,26.82,5.94L74.7,23a48.32,48.32,0,0,0-23-5.76c-16.56,0-22.86,9.9-22.86,18.18,0,11.34,7.38,16.92,24.12,23.4,20.52,7.92,31,17.82,31,35.64,0,18.72-13.86,34.92-42.48,34.92-11.7,0-24.71-3.13-31.18-7.45Z"/></g></g></svg>