<svg xmlns="http://www.w3.org/2000/svg" viewBox="0 0 159.57 218.6"><defs><style>.cls-1{fill:#3b8bff;}.cls-2{fill:#3a92f6;}.cls-3{fill:#3899ee;}.cls-4{fill:#37a0e5;}.cls-5{fill:#35a7dd;}.cls-6{fill:#34aed4;}.cls-7{fill:#32b5cb;}.cls-8{fill:#31bbc3;}.cls-9{fill:#2fc2ba;}.cls-10{fill:#2ec9b1;}.cls-11{fill:#2cd0a9;}.cls-12{fill:#2bd7a0;}.cls-13{fill:#29de98;}.cls-14{fill:#28e58f;}</style></defs><title>资源 1</title><g id="图层_2" data-name="图层 2"><g id="图层_1-2" data-name="图层 1"><path class="cls-1" d="M26.49,183.07h0a13.43,13.43,0,0,1-9.31,9.69h0a13.42,13.42,0,0,1-13-3.21h0A13.45,13.45,0,0,1,.39,176.64h0A13.43,13.43,0,0,1,9.7,167h0a13.42,13.42,0,0,1,13.05,3.21h0A13.45,13.45,0,0,1,26.49,183.07Z"/><path class="cls-2" d="M50.52,189.77A13,13,0,0,1,63.13,193h0a13,13,0,0,1,3.55,12.51h0a13,13,0,0,1-9.06,9.32h0A13,13,0,0,1,41.47,199.1h0A13,13,0,0,1,50.52,189.77Z"/><path class="cls-3" d="M92.42,193.94a12.6,12.6,0,0,1,12.17,3.13h0a12.51,12.51,0,0,1,3.36,12.1h0a12.53,12.53,0,0,1-8.8,9h0A12.56,12.56,0,0,1,83.63,202.9h0A12.54,12.54,0,0,1,92.42,193.94Z"/><path class="cls-4" d="M126.77,182.22a12.07,12.07,0,0,1,11.71,3.1h0a12.05,12.05,0,0,1,3.18,11.7h0a12.09,12.09,0,0,1-8.55,8.59h0a12.12,12.12,0,0,1-14.89-14.79h0A12.12,12.12,0,0,1,126.77,182.22Z"/><path class="cls-5" d="M144.9,157.41a11.77,11.77,0,0,1,11.28,3.06h0a11.56,11.56,0,0,1,3,11.29h0a11.63,11.63,0,0,1-8.29,8.23h0a11.67,11.67,0,0,1-14.25-14.35h0A11.67,11.67,0,0,1,144.9,157.41Z"/><path class="cls-6" d="M138.89,121.47a11.32,11.32,0,0,1,10.83,3h0a11.1,11.1,0,0,1,2.79,10.89h0a11.17,11.17,0,0,1-8,7.86h0a11.24,11.24,0,0,1-13.62-13.91h0A11.24,11.24,0,0,1,138.89,121.47Z"/><path class="cls-7" d="M110.73,102.26a10.76,10.76,0,0,1,10.39,3h0a10.48,10.48,0,0,1,2.6,10.48h0a11,11,0,0,1-7.77,7.5h0a10.8,10.8,0,0,1-13-13.46h0A10.78,10.78,0,0,1,110.73,102.26Z"/><path class="cls-8" d="M71.46,92.77a10.32,10.32,0,0,1,9.94,2.94h0a10.17,10.17,0,0,1,2.41,10.08h0a10.28,10.28,0,0,1-7.52,7.13h0a10.36,10.36,0,0,1-12.35-13h0A10.34,10.34,0,0,1,71.46,92.77Z"/><path class="cls-9" d="M33.56,80.52a10.06,10.06,0,0,1,9.49,2.91h0a9.67,9.67,0,0,1,2.23,9.67h0A9.86,9.86,0,0,1,38,99.87h0A9.92,9.92,0,0,1,26.3,87.29h0A9.9,9.9,0,0,1,33.56,80.52Z"/><path class="cls-10" d="M17.48,51.68a9.43,9.43,0,0,1,9.05,2.87h0a9.49,9.49,0,0,1,2,9.27h0a9.44,9.44,0,0,1-7,6.41h0A9.49,9.49,0,0,1,10.47,58.09h0A9.5,9.5,0,0,1,17.48,51.68Z"/><path class="cls-11" d="M37.53,17a9,9,0,0,1,8.6,2.83h0A9,9,0,0,1,48,28.71h0a9.11,9.11,0,0,1-6.75,6h0A9.06,9.06,0,0,1,30.77,23.05h0A9,9,0,0,1,37.53,17Z"/><path class="cls-12" d="M73,.16A8.87,8.87,0,0,1,81.12,3h0a8.21,8.21,0,0,1,1.66,8.46h0a8.53,8.53,0,0,1-6.49,5.67h0A8.62,8.62,0,0,1,66.47,5.83h0A8.56,8.56,0,0,1,73,.16Z"/><path class="cls-13" d="M113.23,11.16A8.1,8.1,0,0,1,121,13.91h0A8.14,8.14,0,0,1,122.42,22h0a8.11,8.11,0,0,1-6.24,5.3h0A8.19,8.19,0,0,1,107,16.46h0A8.13,8.13,0,0,1,113.23,11.16Z"/><path class="cls-14" d="M132.09,39.27h0a7.75,7.75,0,0,0,8.55,10.37h0a7.75,7.75,0,0,0,4.7-12.59h0a7.76,7.76,0,0,0-13.25,2.22Z"/></g></g></svg>